<?xml version="1.0" encoding="UTF-8"?>
<svg version="1.1" xmlns="http://www.w3.org/2000/svg" width="250" height="67">
<path d="M0 0 C1.06367294 0.00222061 2.12734589 0.00444122 3.22325134 0.00672913 C5.02500572 0.00684242 5.02500572 0.00684242 6.86315918 0.00695801 C8.17042465 0.01211929 9.47769012 0.01728058 10.8245697 0.02259827 C12.16835477 0.02446253 13.51214052 0.02588639 14.85592651 0.02688599 C18.39873622 0.0307105 21.94150515 0.0405402 25.48429871 0.05158997 C29.09706572 0.06180552 32.7098393 0.06638392 36.32261658 0.07142639 C43.41573225 0.08216254 50.50882019 0.09923816 57.60191345 0.12025452 C59.99724829 5.07663918 60.98473023 8.6883797 61.00035095 14.28431702 C61.00439941 14.9506868 61.00844788 15.61705658 61.01261902 16.30361938 C61.01854186 18.45128935 60.99971605 20.59771071 60.97691345 22.74525452 C60.97359009 23.47725067 60.97026672 24.20924683 60.96684265 24.96342468 C60.89149617 39.0951396 60.51853229 53.71712403 55.60191345 67.12025452 C40.05784443 68.07085443 25.04776196 66.42571451 9.66441345 64.37025452 C8.69718353 64.24382568 7.72995361 64.11739685 6.7334137 63.98713684 C-22.34157156 60.14851201 -22.34157156 60.14851201 -30.39808655 56.12025452 C-30.83923321 48.28200426 -29.57932332 41.43042895 -27.58558655 33.87025452 C-27.32455139 32.82095764 -27.06351624 31.77166077 -26.79457092 30.69056702 C-23.13305776 16.40614529 -23.13305776 16.40614529 -16.39808655 12.12025452 C-15.16058655 11.76962952 -13.92308655 11.41900452 -12.64808655 11.05775452 C-11.57558655 10.74837952 -10.50308655 10.43900452 -9.39808655 10.12025452 C-9.06808655 9.13025452 -8.73808655 8.14025452 -8.39808655 7.12025452 C-6.1903785 7.03859956 -3.9817823 6.98076964 -1.77308655 6.93275452 C-0.54332092 6.89794983 0.6864447 6.86314514 1.95347595 6.82728577 C5.9186443 7.14568794 8.27092086 7.97461515 11.60191345 10.12025452 C12.09691345 11.60525452 12.09691345 11.60525452 12.60191345 13.12025452 C13.59191345 13.45025452 14.58191345 13.78025452 15.60191345 14.12025452 C17.6710066 17.06473322 18.81502722 19.63865413 19.60191345 23.12025452 C17.62197804 22.81266274 15.64297747 22.49904771 13.66441345 22.18275452 C12.56226501 22.00873108 11.46011658 21.83470764 10.3245697 21.65541077 C7.60191345 21.12025452 7.60191345 21.12025452 6.60191345 20.12025452 C4.66749445 19.99441485 2.72788583 19.94447442 0.78941345 19.93275452 C-0.79806702 19.91148499 -0.79806702 19.91148499 -2.4176178 19.88978577 C-5.35450691 20.11688466 -7.01131654 20.4186279 -9.39808655 22.12025452 C-10.21393222 25.17933864 -10.21393222 25.17933864 -10.39808655 28.12025452 C-9.53183655 27.64587952 -8.66558655 27.17150452 -7.77308655 26.68275452 C0.86059674 22.68567892 12.65937916 23.01235735 21.60191345 26.12025452 C22.60670598 27.44997996 23.6071396 28.78301753 24.60191345 30.12025452 C25.92191345 30.12025452 27.24191345 30.12025452 28.60191345 30.12025452 C29.59191345 30.78025452 30.58191345 31.44025452 31.60191345 32.12025452 C31.20387784 35.00601271 30.81182276 35.94214965 28.53941345 37.87025452 C27.90003845 38.28275452 27.26066345 38.69525452 26.60191345 39.12025452 C25.61191345 38.46025452 24.62191345 37.80025452 23.60191345 37.12025452 C23.10562439 37.72353577 22.60933533 38.32681702 22.0980072 38.94837952 C17.95281398 43.82507742 14.44093509 47.43430456 8.60191345 50.12025452 C7.94191345 50.12025452 7.28191345 50.12025452 6.60191345 50.12025452 C6.60191345 50.78025452 6.60191345 51.44025452 6.60191345 52.12025452 C13.70125009 53.27001855 20.73131403 53.2729555 27.91294861 53.25062561 C29.99293627 53.24521282 32.07271316 53.25062441 34.1526947 53.25697327 C35.46367126 53.2556842 36.77464783 53.25439514 38.12535095 53.25306702 C39.32079529 53.25193909 40.51623962 53.25081116 41.74790955 53.24964905 C44.54832219 53.31631883 44.54832219 53.31631883 46.60191345 52.12025452 C47.26560209 49.16394345 47.26560209 49.16394345 47.67222595 45.55775452 C47.75818024 44.89243713 47.84413452 44.22711975 47.93269348 43.54164124 C48.11345067 42.12650571 48.28967735 40.71078542 48.46177673 39.29457092 C48.72261995 37.15546439 48.99889148 35.01880437 49.2776947 32.88197327 C51.59584553 20.51678411 51.59584553 20.51678411 48.60191345 9.12025452 C36.03486741 4.93123917 20.03075456 6.79169053 6.91294861 6.56800842 C3.96282951 6.51638489 1.01285689 6.45918382 -1.93714905 6.40150452 C-2.84332977 6.38792908 -3.7495105 6.37435364 -4.68315125 6.36036682 C-5.52187775 6.34364929 -6.36060425 6.32693176 -7.2247467 6.30970764 C-8.32842087 6.29091553 -8.32842087 6.29091553 -9.45439148 6.27174377 C-11.39808655 6.12025452 -11.39808655 6.12025452 -14.39808655 5.12025452 C-14.39808655 4.46025452 -14.39808655 3.80025452 -14.39808655 3.12025452 C-11.50446006 1.67344127 -8.58978565 1.68783076 -5.3941803 1.40150452 C-2.85450745 1.04366412 -2.69060857 0.13492333 0 0 Z " fill="#F2B517" transform="translate(31.398086547851563,-0.1202545166015625)"/>
<path d="M0 0 C1.98 0 3.96 0 6 0 C6.33 3.96 6.66 7.92 7 12 C7.515625 11.175 8.03125 10.35 8.5625 9.5 C11 7 11 7 14.75 6.6875 C15.8225 6.790625 16.895 6.89375 18 7 C17.49448949 9.72975674 16.96734122 11.04054193 15.1875 13.25 C13.69607164 15.85150247 13.69607164 15.85150247 14.6953125 17.9921875 C15.42973407 19.39426504 16.20403299 20.77628788 17.01953125 22.1328125 C18 24 18 24 18 27 C14.6875 27.25 14.6875 27.25 11 27 C9.0625 25 9.0625 25 8 23 C7.34 24.32 6.68 25.64 6 27 C4.02 27 2.04 27 0 27 C-0.33 26.01 -0.66 25.02 -1 24 C-1.495 24.495 -1.99 24.99 -2.5 25.5 C-5.9687357 27.58124142 -9.10636299 27.66439044 -13 27 C-15.9375 25.5625 -15.9375 25.5625 -18 23 C-19.27702106 18.74855102 -19.49999232 15.27775816 -17.875 11.125 C-15.67221662 8.62851217 -14.09694385 7.26693157 -11 6 C-6.76934307 6.21882708 -4.54170582 6.63886279 -1 9 C-0.67 6.03 -0.34 3.06 0 0 Z M-6 16 C-6.33 15.01 -6.66 14.02 -7 13 C-8.32 13.33 -9.64 13.66 -11 14 C-11.33 15.65 -11.66 17.3 -12 19 C-10.11683841 20.10836423 -10.11683841 20.10836423 -8 21 C-7.34 20.67 -6.68 20.34 -6 20 C-6 19.34 -6 18.68 -6 18 C-4.02 19.32 -2.04 20.64 0 22 C0 18.7 0 15.4 0 12 C-2.22114466 12 -4.35878948 14.65336573 -6 16 Z " fill="#F2B517" transform="translate(159,8)"/>
<path d="M0 0 C2.05078125 0.03255208 4.1015625 0.06510417 6.15234375 0.09765625 C6.48234375 1.74765625 6.81234375 3.39765625 7.15234375 5.09765625 C7.81234375 4.43765625 8.47234375 3.77765625 9.15234375 3.09765625 C12.15234375 2.97265625 12.15234375 2.97265625 15.15234375 3.09765625 C16.44422304 3.09765625 17.73637186 3.0757552 19.02734375 3.02734375 C19.72859375 3.00929687 20.42984375 2.99125 21.15234375 2.97265625 C21.85359375 2.94945312 22.55484375 2.92625 23.27734375 2.90234375 C25.15234375 3.09765625 25.15234375 3.09765625 27.15234375 5.09765625 C27.48234375 4.43765625 27.81234375 3.77765625 28.15234375 3.09765625 C29.14234375 3.09765625 30.13234375 3.09765625 31.15234375 3.09765625 C31.15234375 2.10765625 31.15234375 1.11765625 31.15234375 0.09765625 C32.14234375 0.09765625 33.13234375 0.09765625 34.15234375 0.09765625 C34.64734375 2.07765625 34.64734375 2.07765625 35.15234375 4.09765625 C35.48234375 3.76765625 35.81234375 3.43765625 36.15234375 3.09765625 C38.15187133 3.05418826 40.15274363 3.05766425 42.15234375 3.09765625 C43.14234375 3.09765625 44.13234375 3.09765625 45.15234375 3.09765625 C49.81901042 3.09765625 54.48567708 3.09765625 59.15234375 3.09765625 C61.02359504 6.95023244 61.14264606 8.97716761 60.15234375 13.09765625 C50.48567708 13.09765625 40.81901042 13.09765625 31.15234375 13.09765625 C30.65734375 11.61265625 30.65734375 11.61265625 30.15234375 10.09765625 C29.49234375 11.08765625 28.83234375 12.07765625 28.15234375 13.09765625 C27.16234375 13.09765625 26.17234375 13.09765625 25.15234375 13.09765625 C23.69171525 10.45026709 23.15234375 9.20317291 23.15234375 6.09765625 C22.16234375 6.59265625 22.16234375 6.59265625 21.15234375 7.09765625 C20.49461947 10.12700116 20.49461947 10.12700116 20.15234375 13.09765625 C12.81901042 13.09765625 5.48567708 13.09765625 -1.84765625 13.09765625 C-2.50765625 11.44765625 -3.16765625 9.79765625 -3.84765625 8.09765625 C-3.18765625 7.76765625 -2.52765625 7.43765625 -1.84765625 7.09765625 C-2.17765625 6.76765625 -2.50765625 6.43765625 -2.84765625 6.09765625 C-2.97265625 3.59765625 -2.97265625 3.59765625 -2.84765625 1.09765625 C-1.84765625 0.09765625 -1.84765625 0.09765625 0 0 Z M0.15234375 3.09765625 C2.13234375 4.08765625 2.13234375 4.08765625 4.15234375 5.09765625 C4.15234375 4.43765625 4.15234375 3.77765625 4.15234375 3.09765625 C2.83234375 3.09765625 1.51234375 3.09765625 0.15234375 3.09765625 Z M38.15234375 6.09765625 C38.15234375 7.41765625 38.15234375 8.73765625 38.15234375 10.09765625 C39.80234375 9.76765625 41.45234375 9.43765625 43.15234375 9.09765625 C43.15234375 8.43765625 43.15234375 7.77765625 43.15234375 7.09765625 C41.50234375 6.76765625 39.85234375 6.43765625 38.15234375 6.09765625 Z M0.15234375 8.09765625 C0.15234375 8.75765625 0.15234375 9.41765625 0.15234375 10.09765625 C1.47234375 9.76765625 2.79234375 9.43765625 4.15234375 9.09765625 C2.83234375 8.76765625 1.51234375 8.43765625 0.15234375 8.09765625 Z " fill="#F2B517" transform="translate(124.84765625,46.90234375)"/>
<path d="M0 0 C2.31 0 4.62 0 7 0 C7.33 3.63 7.66 7.26 8 11 C8.495 10.360625 8.99 9.72125 9.5 9.0625 C12.83339876 6.31244602 15.69904543 5.6127493 20 6 C22.37918905 7.07916803 23.9584071 8.31568586 26 10 C24.92598892 12.91517292 24.22189824 14.77810176 22 17 C23.0209375 17.86625 23.0209375 17.86625 24.0625 18.75 C26 21 26 21 26 23.125 C24.62896557 25.69568956 23.80025347 26.13838355 21 27 C15.82122905 27.57541899 15.82122905 27.57541899 13 27 C10 24.5 10 24.5 8 22 C7.67 23.65 7.34 25.3 7 27 C4.69 27 2.38 27 0 27 C0 18.09 0 9.18 0 0 Z " fill="#F2B517" transform="translate(220,8)"/>
<path d="M0 0 C1.30358963 -0.00175232 2.60717926 -0.00350464 3.95027161 -0.00531006 C7.50189216 -0.00984067 11.05348343 -0.00811293 14.60510445 -0.00493097 C18.3364685 -0.00238467 22.06783018 -0.00475121 25.79919434 -0.00631714 C32.06323696 -0.00813223 38.32726777 -0.00574988 44.59130859 -0.00097656 C51.81505643 0.00446478 59.03877603 0.00270166 66.26252317 -0.00280297 C72.48445231 -0.00735294 78.70637298 -0.00797544 84.92830324 -0.0053643 C88.63573449 -0.00381188 92.34315251 -0.00357924 96.05058289 -0.00690079 C100.18608246 -0.0103476 104.32153398 -0.00555904 108.45703125 0 C110.28081047 -0.00303635 110.28081047 -0.00303635 112.14143372 -0.00613403 C118.42262495 0.00946733 124.50142185 0.29485959 130.72851562 1.12939453 C130.72851562 1.78939453 130.72851562 2.44939453 130.72851562 3.12939453 C80.23851562 3.12939453 29.74851562 3.12939453 -22.27148438 3.12939453 C-22.27148438 2.46939453 -22.27148438 1.80939453 -22.27148438 1.12939453 C-14.81978485 0.13074189 -7.51255407 -0.01250739 0 0 Z " fill="#F2B517" transform="translate(119.271484375,39.87060546875)"/>
<path d="M0 0 C13.5 0 13.5 0 18.75 4.5 C21.30768072 7.56921686 21.33806968 11.07376209 21.28125 14.9375 C20.81163806 18.38132092 19.22860816 20.40999592 17 23 C12 26 12 26 0 26 C0 17.42 0 8.84 0 0 Z M7 7 C7 10.96 7 14.92 7 19 C11.86132495 18.50847518 11.86132495 18.50847518 14 16 C14.44416897 11.82731088 14.44416897 11.82731088 12.75 8.125 C10.78595012 6.63949494 10.78595012 6.63949494 7 7 Z " fill="#F2B517" transform="translate(100,9)"/>
<path d="M0 0 C0 6.6 0 13.2 0 20 C-1.65 19.67 -3.3 19.34 -5 19 C-5.66 19.33 -6.32 19.66 -7 20 C-13.99015219 20.68755595 -13.99015219 20.68755595 -17.9375 18 C-20.47250845 14.31271498 -21.45534999 11.47468928 -21 7 C-16.07592497 -2.84815005 -9.84066383 -0.98406638 0 0 Z M-12 6 C-12.66 6.66 -13.32 7.32 -14 8 C-13.67958603 10.60280568 -13.67958603 10.60280568 -13 13 C-12.01 13.33 -11.02 13.66 -10 14 C-8.35444301 12.77190909 -8.35444301 12.77190909 -7 11 C-7.22757731 8.83700789 -7.22757731 8.83700789 -8 7 C-9.89179203 6.3185177 -9.89179203 6.3185177 -12 6 Z " fill="#F2B517" transform="translate(219,15)"/>
<path d="M0 0 C6.93 0 13.86 0 21 0 C21 2.31 21 4.62 21 7 C18.69 7 16.38 7 14 7 C14 13.27 14 19.54 14 26 C11.69 26 9.38 26 7 26 C7 19.73 7 13.46 7 7 C4.69 7 2.38 7 0 7 C0 4.69 0 2.38 0 0 Z " fill="#F2B517" transform="translate(181,9)"/>
<path d="M0 0 C1.98 0 3.96 0 6 0 C6.33 3.96 6.66 7.92 7 12 C7.99 12 8.98 12 10 12 C10.33 8.04 10.66 4.08 11 0 C12.98 0 14.96 0 17 0 C17 6.6 17 13.2 17 20 C5.93243243 20.48648649 5.93243243 20.48648649 2.125 18.5 C-0.80594135 15.0518337 -0.55935119 12.04900848 -0.3125 7.75 C-0.28994141 7.00492188 -0.26738281 6.25984375 -0.24414062 5.4921875 C-0.18543561 3.660591 -0.09575757 1.83003347 0 0 Z " fill="#F2B517" transform="translate(122,15)"/>
<path d="M0 0 C0.99 0 1.98 0 3 0 C3 3.3 3 6.6 3 10 C4.98 10 6.96 10 9 10 C8.79375 8.906875 8.5875 7.81375 8.375 6.6875 C8 3 8 3 10 0 C10.99 0 11.98 0 13 0 C13.66 0.99 14.32 1.98 15 3 C16.32 3 17.64 3 19 3 C19 2.01 19 1.02 19 0 C20.32 0 21.64 0 23 0 C23 3.3 23 6.6 23 10 C23.66 10 24.32 10 25 10 C25 10.99 25 11.98 25 13 C16.75 13 8.5 13 0 13 C0 8.71 0 4.42 0 0 Z M17 6 C17 7.32 17 8.64 17 10 C17.66 10 18.32 10 19 10 C19 8.68 19 7.36 19 6 C18.34 6 17.68 6 17 6 Z " fill="#F2B517" transform="translate(224,47)"/>
<path d="M0 0 C2.97 0 5.94 0 9 0 C9.33 0.99 9.66 1.98 10 3 C10.99 3 11.98 3 13 3 C13.66 3.66 14.32 4.32 15 5 C15.33 4.34 15.66 3.68 16 3 C16.99 3 17.98 3 19 3 C19.33 2.01 19.66 1.02 20 0 C20.66 0 21.32 0 22 0 C22 0.99 22 1.98 22 3 C22.66 3 23.32 3 24 3 C24 3.99 24 4.98 24 6 C23.34 6 22.68 6 22 6 C22 7.32 22 8.64 22 10 C23.65 10 25.3 10 27 10 C27 10.99 27 11.98 27 13 C24.69 13 22.38 13 20 13 C19.34 11.68 18.68 10.36 18 9 C17.34 10.32 16.68 11.64 16 13 C14.68 12.67 13.36 12.34 12 12 C11.67 10.35 11.34 8.7 11 7 C10.13375 7.495 10.13375 7.495 9.25 8 C7 9 7 9 3 9 C3 10.32 3 11.64 3 13 C2.01 13 1.02 13 0 13 C0 8.71 0 4.42 0 0 Z M3 3 C3 3.99 3 4.98 3 6 C4.32 5.67 5.64 5.34 7 5 C7 4.34 7 3.68 7 3 C5.68 3 4.36 3 3 3 Z " fill="#F2B517" transform="translate(191,47)"/>
<path d="M0 0 C4.95 0 9.9 0 15 0 C15 0.99 15 1.98 15 3 C13.68 3 12.36 3 11 3 C11 6.3 11 9.6 11 13 C9.68 13 8.36 13 7 13 C7 9.7 7 6.4 7 3 C5.68 3 4.36 3 3 3 C3 6.3 3 9.6 3 13 C2.01 13 1.02 13 0 13 C0 8.71 0 4.42 0 0 Z " fill="#F2B517" transform="translate(103,47)"/>
<path d="M0 0 C0 0.99 0 1.98 0 3 C-3.75 4.125 -3.75 4.125 -6 3 C-6 3.66 -6 4.32 -6 5 C-7.32 5.33 -8.64 5.66 -10 6 C-10.66 4.68 -11.32 3.36 -12 2 C-7.56043724 -0.29632557 -4.94312365 -1.20238143 0 0 Z " fill="#F2B517" transform="translate(64,21)"/>
<path d="M0 0 C2.0625 0.4375 2.0625 0.4375 4 1 C3.67 2.98 3.34 4.96 3 7 C1.68 6.67 0.36 6.34 -1 6 C-1.042721 4.33388095 -1.04063832 2.66617115 -1 1 C-0.67 0.67 -0.34 0.34 0 0 Z " fill="#F2B517" transform="translate(68,14)"/>
</svg>
